<?xml version="1.0" encoding="UTF-8" standalone="no"?>
<!-- Created with Inkscape (http://www.inkscape.org/) -->

<svg
   xmlns:dc="http://purl.org/dc/elements/1.1/"
   xmlns:cc="http://creativecommons.org/ns#"
   xmlns:rdf="http://www.w3.org/1999/02/22-rdf-syntax-ns#"
   xmlns:svg="http://www.w3.org/2000/svg"
   xmlns="http://www.w3.org/2000/svg"
   version="1.1"
   width="151.50354"
   height="68.224228"
   id="svg2">
  <defs
     id="defs4">
    <marker
       refX="0"
       refY="0"
       orient="auto"
       id="Arrow1Lend"
       style="overflow:visible">
      <path
         d="M 0,0 5,-5 -12.5,0 5,5 0,0 z"
         transform="matrix(-0.8,0,0,-0.8,-10,0)"
         id="path4009"
         style="fill-rule:evenodd;stroke:#000000;stroke-width:1pt" />
    </marker>
    <marker
       refX="0"
       refY="0"
       orient="auto"
       id="Arrow1Mend"
       style="overflow:visible">
      <path
         d="M 0,0 5,-5 -12.5,0 5,5 0,0 z"
         transform="matrix(-0.4,0,0,-0.4,-4,0)"
         id="path4015"
         style="fill-rule:evenodd;stroke:#000000;stroke-width:1pt" />
    </marker>
    <marker
       refX="0"
       refY="0"
       orient="auto"
       id="Arrow1Lstart"
       style="overflow:visible">
      <path
         d="M 0,0 5,-5 -12.5,0 5,5 0,0 z"
         transform="matrix(0.8,0,0,0.8,10,0)"
         id="path4006"
         style="fill-rule:evenodd;stroke:#000000;stroke-width:1pt" />
    </marker>
  </defs>
  <metadata
     id="metadata7">
    <rdf:RDF>
      <cc:Work
         rdf:about="">
        <dc:format>image/svg+xml</dc:format>
        <dc:type
           rdf:resource="http://purl.org/dc/dcmitype/StillImage" />
        <dc:title></dc:title>
      </cc:Work>
    </rdf:RDF>
  </metadata>
  <g
     transform="translate(-293.72693,-153.13796)"
     id="layer1">
    <g
       id="g5802">
      <g
         transform="translate(-1.8290431,33.188376)"
         id="g3177">
        <path
           d="m 332.94034,145.05051 0,-2.67031 -1.06812,0 -1.06813,0 0,-1.06812 0,-1.06813 -0.53406,0 -0.53406,0 0,1.06813 0,1.06812 -2.13625,0 -2.13625,0 0,-1.06812 0,-1.06813 -0.53406,0 -0.53407,0 0,1.06813 0,1.06812 -2.13625,0 -2.13625,0 0,-1.06812 0,-1.06813 -0.53406,0 -0.53406,0 0,1.06813 0,1.06812 -2.13625,0 -2.13625,0 0,-1.06812 0,-1.06813 -0.53406,0 -0.53407,0 0,1.06813 0,1.06812 -2.13625,0 -2.13625,0 0,-1.06812 0,-1.06813 -0.53406,0 -0.53406,0 0,1.06813 0,1.06812 -2.13625,0 -2.13625,0 0,-1.06812 0,-1.06813 -0.53406,0 -0.53407,0 0,1.06813 0,1.06812 -2.13625,0 -2.13625,0 0,-1.06812 0,-1.06813 -0.53406,0 -0.53406,0 0,1.06813 0,1.06812 -1.06813,0 -1.06812,0 0,-8.545 0,-8.545 2.67031,0 2.67031,0 0,1.06813 0,1.06812 0.53407,0 0.53406,0 0,-1.06812 0,-1.06813 2.13625,0 2.13625,0 0,1.06813 0,1.06812 0.53406,0 0.53406,0 0,-1.06812 0,-1.06813 2.13625,0 2.13625,0 0,1.06813 0,1.06812 0.53407,0 0.53406,0 0,-1.06812 0,-1.06813 2.13625,0 2.13625,0 0,1.06813 0,1.06812 0.53406,0 0.53406,0 0,-1.06812 0,-1.06813 2.13625,0 2.13625,0 0,1.06813 0,1.06812 0.53407,0 0.53406,0 0,-1.06812 0,-1.06813 2.13625,0 2.13625,0 0,1.06813 0,1.06812 0.53406,0 0.53406,0 0,-1.06812 0,-1.06813 2.13625,0 2.13625,0 0,-2.67031 0,-2.67031 28.83938,0 28.83937,0 0,2.67031 0,2.67031 1.06812,0 1.06813,0 0,2.13625 0,2.13625 14.41968,0 14.41969,0 0,0.53407 0,0.53406 1.60219,0 1.60219,0 0,-0.53406 0,-0.53407 1.60218,0 1.60219,0 0,0.53407 0,0.53406 1.06813,0 1.06812,0 0,3.20437 0,3.20438 -1.06812,0 -1.06813,0 0,0.53406 0,0.53406 -1.60219,0 -1.60218,0 0,-0.53406 0,-0.53406 -1.60219,0 -1.60219,0 0,0.53406 0,0.53406 -14.41969,0 -14.41968,0 0,2.13625 0,2.13625 -1.06813,0 -1.06812,0 0,2.67031 0,2.67032 -28.83937,0 -28.83938,0 z m 68.36,-10.68124 0,-0.53407 -4.2725,0 -4.2725,0 0,0.53407 0,0.53406 4.2725,0 4.2725,0 z m 8.545,0 0,-0.53407 -3.73844,0 -3.73844,0 0,0.53407 0,0.53406 3.73844,0 3.73844,0 z m 8.545,0 0,-0.53407 -3.73844,0 -3.73844,0 0,0.53407 0,0.53406 3.73844,0 3.73844,0 z m 10.68125,0 0,-0.53407 -4.80657,0 -4.80656,0 0,0.53407 0,0.53406 4.80656,0 4.80657,0 z"
           id="path3183"
           style="fill:#bfbfbf" />
        <path
           d="m 332.94034,145.05051 0,-2.67031 -1.06812,0 -1.06813,0 0,-1.06812 0,-1.06813 -0.53406,0 -0.53406,0 0,1.06813 0,1.06812 -2.13625,0 -2.13625,0 0,-1.06812 0,-1.06813 -0.53406,0 -0.53407,0 0,1.06813 0,1.06812 -2.13625,0 -2.13625,0 0,-1.06812 0,-1.06813 -0.53406,0 -0.53406,0 0,1.06813 0,1.06812 -2.13625,0 -2.13625,0 0,-1.06812 0,-1.06813 -0.53406,0 -0.53407,0 0,1.06813 0,1.06812 -2.13625,0 -2.13625,0 0,-1.06812 0,-1.06813 -0.53406,0 -0.53406,0 0,1.06813 0,1.06812 -2.13625,0 -2.13625,0 0,-1.06812 0,-1.06813 -0.53406,0 -0.53407,0 0,1.06813 0,1.06812 -2.13625,0 -2.13625,0 0,-1.06812 0,-1.06813 -0.53406,0 -0.53406,0 0,1.06813 0,1.06812 -1.06813,0 -1.06812,0 0,-8.545 0,-8.545 2.67031,0 2.67031,0 0,1.06813 0,1.06812 0.53407,0 0.53406,0 0,-1.06812 0,-1.06813 2.13625,0 2.13625,0 0,1.06813 0,1.06812 0.53406,0 0.53406,0 0,-1.06812 0,-1.06813 2.13625,0 2.13625,0 0,1.06813 0,1.06812 0.53407,0 0.53406,0 0,-1.06812 0,-1.06813 2.13625,0 2.13625,0 0,1.06813 0,1.06812 0.53406,0 0.53406,0 0,-1.06812 0,-1.06813 2.13625,0 2.13625,0 0,1.06813 0,1.06812 0.53407,0 0.53406,0 0,-1.06812 0,-1.06813 2.13625,0 2.13625,0 0,1.06813 0,1.06812 0.53406,0 0.53406,0 0,-1.06812 0,-1.06813 2.13625,0 2.13625,0 0,-2.67031 0,-2.67031 28.83938,0 28.83937,0 0,2.67031 0,2.67031 1.06812,0 1.06813,0 0,2.13625 0,2.13625 14.41968,0 14.41969,0 0,0.53407 0,0.53406 1.60219,0 1.60219,0 0,-0.53406 0,-0.53407 1.60218,0 1.60219,0 0,0.53407 0,0.53406 1.06813,0 1.06812,0 0,3.20437 0,3.20438 -1.06812,0 -1.06813,0 0,0.53406 0,0.53406 -1.60219,0 -1.60218,0 0,-0.53406 0,-0.53406 -1.60219,0 -1.60219,0 0,0.53406 0,0.53406 -14.41969,0 -14.41968,0 0,2.13625 0,2.13625 -1.06813,0 -1.06812,0 0,2.67031 0,2.67032 -28.83937,0 -28.83938,0 z m 58.74687,-11.21531 0,-7.47687 -0.53406,0 -0.53406,0 0,7.47687 0,7.47688 0.53406,0 0.53406,0 z m 9.61313,1.06813 0,-2.13625 -0.53407,0 -0.53406,0 0,-0.53406 0,-0.53407 -0.53406,0 -0.53406,0 0,0.53407 0,0.53406 -0.53407,0 -0.53406,0 0,-0.53406 0,-0.53407 -0.53406,0 -0.53406,0 0,0.53407 0,0.53406 -0.53406,0 -0.53407,0 0,-0.53406 0,-0.53407 -0.53406,0 -0.53406,0 0,0.53407 0,0.53406 -0.53406,0 -0.53407,0 0,-0.53406 0,-0.53407 -0.53406,0 -0.53406,0 0,2.67032 0,2.67031 4.2725,0 4.2725,0 z m 8.545,-0.53406 0,-2.67032 -0.53407,0 -0.53406,0 0,0.53407 0,0.53406 -0.53406,0 -0.53406,0 0,-0.53406 0,-0.53407 -0.53407,0 -0.53406,0 0,0.53407 0,0.53406 -0.53406,0 -0.53406,0 0,-0.53406 0,-0.53407 -0.53407,0 -0.53406,0 0,0.53407 0,0.53406 -0.53406,0 -0.53406,0 0,-0.53406 0,-0.53407 -0.53407,0 -0.53406,0 0,2.67032 0,2.67031 3.73844,0 3.73844,0 z m 8.545,0 0,-2.67032 -0.53407,0 -0.53406,0 0,0.53407 0,0.53406 -0.53406,0 -0.53406,0 0,-0.53406 0,-0.53407 -0.53407,0 -0.53406,0 0,0.53407 0,0.53406 -0.53406,0 -0.53406,0 0,-0.53406 0,-0.53407 -0.53407,0 -0.53406,0 0,0.53407 0,0.53406 -0.53406,0 -0.53406,0 0,-0.53406 0,-0.53407 -0.53407,0 -0.53406,0 0,2.67032 0,2.67031 3.73844,0 3.73844,0 z m 2.13625,2.13625 0,-0.53407 2.13625,0 2.13625,0 0,0.53407 0,0.53406 1.60218,0 1.60219,0 0,-0.53406 0,-0.53407 0.53406,0 0.53407,0 0,-2.13625 0,-2.13625 -0.53407,0 -0.53406,0 0,0.53407 0,0.53406 -0.53406,0 -0.53406,0 0,-0.53406 0,-0.53407 -0.53407,0 -0.53406,0 0,0.53407 0,0.53406 -0.53406,0 -0.53406,0 0,-0.53406 0,-0.53407 -0.53407,0 -0.53406,0 0,0.53407 0,0.53406 -0.53406,0 -0.53406,0 0,-0.53406 0,-0.53407 -0.53407,0 -0.53406,0 0,0.53407 0,0.53406 -0.53406,0 -0.53406,0 0,-0.53406 0,-0.53407 -0.53407,0 -0.53406,0 0,2.67032 0,2.67031 0.53406,0 0.53407,0 z"
           id="path3181"
           style="fill:#7f7f7f" />
        <path
           d="m 332.94034,145.05051 0,-2.67031 -1.06812,0 -1.06813,0 0,-1.06812 0,-1.06813 -0.53406,0 -0.53406,0 0,1.06813 0,1.06812 -2.13625,0 -2.13625,0 0,-1.06812 0,-1.06813 -0.53406,0 -0.53407,0 0,1.06813 0,1.06812 -2.13625,0 -2.13625,0 0,-1.06812 0,-1.06813 -0.53406,0 -0.53406,0 0,1.06813 0,1.06812 -2.13625,0 -2.13625,0 0,-1.06812 0,-1.06813 -0.53406,0 -0.53407,0 0,1.06813 0,1.06812 -2.13625,0 -2.13625,0 0,-1.06812 0,-1.06813 -0.53406,0 -0.53406,0 0,1.06813 0,1.06812 -2.13625,0 -2.13625,0 0,-1.06812 0,-1.06813 -0.53406,0 -0.53407,0 0,1.06813 0,1.06812 -2.13625,0 -2.13625,0 0,-1.06812 0,-1.06813 -0.53406,0 -0.53406,0 0,1.06813 0,1.06812 -1.06813,0 -1.06812,0 0,-8.545 0,-8.545 2.67031,0 2.67031,0 0,1.06813 0,1.06812 0.53407,0 0.53406,0 0,-1.06812 0,-1.06813 2.13625,0 2.13625,0 0,1.06813 0,1.06812 0.53406,0 0.53406,0 0,-1.06812 0,-1.06813 2.13625,0 2.13625,0 0,1.06813 0,1.06812 0.53407,0 0.53406,0 0,-1.06812 0,-1.06813 2.13625,0 2.13625,0 0,1.06813 0,1.06812 0.53406,0 0.53406,0 0,-1.06812 0,-1.06813 2.13625,0 2.13625,0 0,1.06813 0,1.06812 0.53407,0 0.53406,0 0,-1.06812 0,-1.06813 2.13625,0 2.13625,0 0,1.06813 0,1.06812 0.53406,0 0.53406,0 0,-1.06812 0,-1.06813 2.13625,0 2.13625,0 0,-2.67031 0,-2.67031 28.83938,0 28.83937,0 0,2.67031 0,2.67031 1.06812,0 1.06813,0 0,2.13625 0,2.13625 14.41968,0 14.41969,0 0,0.53407 0,0.53406 1.60219,0 1.60219,0 0,-0.53406 0,-0.53407 1.60218,0 1.60219,0 0,0.53407 0,0.53406 1.06813,0 1.06812,0 0,3.20437 0,3.20438 -1.06812,0 -1.06813,0 0,0.53406 0,0.53406 -1.60219,0 -1.60218,0 0,-0.53406 0,-0.53406 -1.60219,0 -1.60219,0 0,0.53406 0,0.53406 -14.41969,0 -14.41968,0 0,2.13625 0,2.13625 -1.06813,0 -1.06812,0 0,2.67031 0,2.67032 -28.83937,0 -28.83938,0 z m 56.61062,-11.21531 0,-12.8175 -27.77124,0 -27.77125,0 0,12.8175 0,12.8175 27.77125,0 27.77124,0 z m -87.58624,6.94281 0,-0.53406 0.53406,0 0.53406,0 0,-0.53406 0,-0.53406 0.53407,0 0.53406,0 0,0.53406 0,0.53406 0.53406,0 0.53406,0 0,0.53406 0,0.53407 1.06813,0 1.06812,0 0,-0.53407 0,-0.53406 0.53407,0 0.53406,0 0,-0.53406 0,-0.53406 0.53406,0 0.53406,0 0,0.53406 0,0.53406 0.53407,0 0.53406,0 0,0.53406 0,0.53407 1.06812,0 1.06813,0 0,-0.53407 0,-0.53406 0.53406,0 0.53406,0 0,-0.53406 0,-0.53406 0.53407,0 0.53406,0 0,0.53406 0,0.53406 0.53406,0 0.53406,0 0,0.53406 0,0.53407 1.06813,0 1.06812,0 0,-0.53407 0,-0.53406 0.53407,0 0.53406,0 0,-0.53406 0,-0.53406 0.53406,0 0.53406,0 0,0.53406 0,0.53406 0.53407,0 0.53406,0 0,0.53406 0,0.53407 1.06812,0 1.06813,0 0,-0.53407 0,-0.53406 0.53406,0 0.53406,0 0,-0.53406 0,-0.53406 0.53407,0 0.53406,0 0,0.53406 0,0.53406 0.53406,0 0.53406,0 0,0.53406 0,0.53407 1.06813,0 1.06812,0 0,-0.53407 0,-0.53406 0.53406,0 0.53407,0 0,-0.53406 0,-0.53406 0.53406,0 0.53406,0 0,0.53406 0,0.53406 0.53406,0 0.53407,0 0,0.53406 0,0.53407 0.53406,0 0.53406,0 0,-7.47688 0,-7.47687 -1.60219,0 -1.60218,0 0,0.53406 0,0.53406 -0.53407,0 -0.53406,0 0,0.53407 0,0.53406 -0.53406,0 -0.53406,0 0,-0.53406 0,-0.53407 -0.53406,0 -0.53407,0 0,-0.53406 0,-0.53406 -1.06812,0 -1.06813,0 0,0.53406 0,0.53406 -0.53406,0 -0.53406,0 0,0.53407 0,0.53406 -0.53406,0 -0.53407,0 0,-0.53406 0,-0.53407 -0.53406,0 -0.53406,0 0,-0.53406 0,-0.53406 -1.06813,0 -1.06812,0 0,0.53406 0,0.53406 -0.53406,0 -0.53407,0 0,0.53407 0,0.53406 -0.53406,0 -0.53406,0 0,-0.53406 0,-0.53407 -0.53406,0 -0.53407,0 0,-0.53406 0,-0.53406 -1.06812,0 -1.06813,0 0,0.53406 0,0.53406 -0.53406,0 -0.53406,0 0,0.53407 0,0.53406 -0.53406,0 -0.53407,0 0,-0.53406 0,-0.53407 -0.53406,0 -0.53406,0 0,-0.53406 0,-0.53406 -1.06813,0 -1.06812,0 0,0.53406 0,0.53406 -0.53406,0 -0.53407,0 0,0.53407 0,0.53406 -0.53406,0 -0.53406,0 0,-0.53406 0,-0.53407 -0.53406,0 -0.53407,0 0,-0.53406 0,-0.53406 -1.06812,0 -1.06813,0 0,0.53406 0,0.53406 -0.53406,0 -0.53406,0 0,0.53407 0,0.53406 -0.53406,0 -0.53407,0 0,-0.53406 0,-0.53407 -0.53406,0 -0.53406,0 0,-0.53406 0,-0.53406 -1.60219,0 -1.60219,0 0,6.94281 0,6.94281 0.53407,0 0.53406,0 0,-0.53406 0,-0.53406 0.53406,0 0.53406,0 0,0.53406 0,0.53406 0.53407,0 0.53406,0 0,0.53406 0,0.53407 1.06812,0 1.06813,0 z m -3.20438,-4.27249 0,-0.53407 -0.53406,0 -0.53406,0 0,-2.13625 0,-2.13625 0.53406,0 0.53406,0 0,-0.53406 0,-0.53406 0.53407,0 0.53406,0 0,0.53406 0,0.53406 0.53406,0 0.53406,0 0,2.13625 0,2.13625 -0.53406,0 -0.53406,0 0,0.53407 0,0.53406 -0.53406,0 -0.53407,0 z m 1.06813,-2.67032 0,-2.13625 -0.53406,0 -0.53407,0 0,2.13625 0,2.13625 0.53407,0 0.53406,0 z m 4.2725,2.67032 0,-0.53407 -0.53406,0 -0.53407,0 0,-2.13625 0,-2.13625 0.53407,0 0.53406,0 0,-0.53406 0,-0.53406 0.53406,0 0.53406,0 0,0.53406 0,0.53406 0.53407,0 0.53406,0 0,2.13625 0,2.13625 -0.53406,0 -0.53407,0 0,0.53407 0,0.53406 -0.53406,0 -0.53406,0 z m 1.06812,-2.67032 0,-2.13625 -0.53406,0 -0.53406,0 0,2.13625 0,2.13625 0.53406,0 0.53406,0 z m 4.2725,2.67032 0,-0.53407 -0.53406,0 -0.53406,0 0,-2.13625 0,-2.13625 0.53406,0 0.53406,0 0,-0.53406 0,-0.53406 0.53407,0 0.53406,0 0,0.53406 0,0.53406 0.53406,0 0.53406,0 0,2.13625 0,2.13625 -0.53406,0 -0.53406,0 0,0.53407 0,0.53406 -0.53406,0 -0.53407,0 z m 1.06813,-2.67032 0,-2.13625 -0.53406,0 -0.53407,0 0,2.13625 0,2.13625 0.53407,0 0.53406,0 z m 4.2725,2.67032 0,-0.53407 -0.53406,0 -0.53407,0 0,-2.13625 0,-2.13625 0.53407,0 0.53406,0 0,-0.53406 0,-0.53406 0.53406,0 0.53406,0 0,0.53406 0,0.53406 0.53407,0 0.53406,0 0,2.13625 0,2.13625 -0.53406,0 -0.53407,0 0,0.53407 0,0.53406 -0.53406,0 -0.53406,0 z m 1.06812,-2.67032 0,-2.13625 -0.53406,0 -0.53406,0 0,2.13625 0,2.13625 0.53406,0 0.53406,0 z m 4.2725,2.67032 0,-0.53407 -0.53406,0 -0.53406,0 0,-2.13625 0,-2.13625 0.53406,0 0.53406,0 0,-0.53406 0,-0.53406 0.53407,0 0.53406,0 0,0.53406 0,0.53406 0.53406,0 0.53406,0 0,2.13625 0,2.13625 -0.53406,0 -0.53406,0 0,0.53407 0,0.53406 -0.53406,0 -0.53407,0 z m 1.06813,-2.67032 0,-2.13625 -0.53406,0 -0.53407,0 0,2.13625 0,2.13625 0.53407,0 0.53406,0 z m 4.2725,2.67032 0,-0.53407 -0.53406,0 -0.53407,0 0,-2.13625 0,-2.13625 0.53407,0 0.53406,0 0,-0.53406 0,-0.53406 0.53406,0 0.53406,0 0,0.53406 0,0.53406 0.53407,0 0.53406,0 0,2.13625 0,2.13625 -0.53406,0 -0.53407,0 0,0.53407 0,0.53406 -0.53406,0 -0.53406,0 z m 1.06812,-2.67032 0,-2.13625 -0.53406,0 -0.53406,0 0,2.13625 0,2.13625 0.53406,0 0.53406,0 z m 65.15562,0 0,-7.47687 -0.53406,0 -0.53406,0 0,7.47687 0,7.47688 0.53406,0 0.53406,0 z m 9.61313,0 0,-3.20437 -4.2725,0 -4.2725,0 0,3.20437 0,3.20438 4.2725,0 4.2725,0 z m 8.545,0 0,-3.20437 -3.73844,0 -3.73844,0 0,3.20437 0,3.20438 3.73844,0 3.73844,0 z m 8.545,0 0,-3.20437 -3.73844,0 -3.73844,0 0,3.20437 0,3.20438 3.73844,0 3.73844,0 z m 2.13625,2.67032 0,-0.53407 2.13625,0 2.13625,0 0,0.53407 0,0.53406 1.60218,0 1.60219,0 0,-0.53406 0,-0.53407 0.53406,0 0.53407,0 0,-2.13625 0,-2.13625 -0.53407,0 -0.53406,0 0,-0.53406 0,-0.53406 -1.60219,0 -1.60218,0 0,0.53406 0,0.53406 -2.13625,0 -2.13625,0 0,-0.53406 0,-0.53406 -0.53407,0 -0.53406,0 0,3.20437 0,3.20438 0.53406,0 0.53407,0 z"
           id="path3179"
           style="fill:#000000" />
      </g>
      <path
         d="m 376.78572,212.36218 18.74999,-35"
         id="path3232"
         style="fill:none;stroke:#000000;stroke-width:1px;stroke-linecap:butt;stroke-linejoin:miter;stroke-opacity:1;marker-start:none;marker-mid:none;marker-end:none;display:inline" />
      <path
         d="m 403.92857,177.36218 -4.92857,35"
         id="path5776"
         style="fill:none;stroke:#000000;stroke-width:1px;stroke-linecap:butt;stroke-linejoin:miter;stroke-opacity:1" />
      <path
         d="m 413,177.36218 7,35"
         id="path5778"
         style="fill:none;stroke:#000000;stroke-width:1px;stroke-linecap:butt;stroke-linejoin:miter;stroke-opacity:1" />
      <path
         d="m 422.32143,177.36218 15.67857,35"
         id="path5780"
         style="fill:none;stroke:#000000;stroke-width:1px;stroke-linecap:butt;stroke-linejoin:miter;stroke-opacity:1" />
      <text
         x="367.94247"
         y="221.24591"
         transform="scale(0.99998647,1.0000135)"
         id="text5782"
         xml:space="preserve"
         style="font-size:8px;font-style:normal;font-variant:normal;font-weight:normal;font-stretch:normal;text-align:start;line-height:125%;letter-spacing:0px;word-spacing:0px;writing-mode:lr-tb;text-anchor:start;fill:#000000;fill-opacity:1;stroke:none;font-family:Sans;-inkscape-font-specification:Sans"><tspan
           x="367.94247"
           y="221.24591"
           id="tspan5786"
           style="font-size:8px;font-style:normal;font-variant:normal;font-weight:normal;font-stretch:normal;text-align:start;line-height:125%;writing-mode:lr-tb;text-anchor:start;font-family:Sans;-inkscape-font-specification:Sans">VCC</tspan></text>
      <text
         x="389.55078"
         y="221.2489"
         id="text5790"
         xml:space="preserve"
         style="font-size:8px;font-style:normal;font-variant:normal;font-weight:normal;font-stretch:normal;text-align:start;line-height:125%;letter-spacing:0px;word-spacing:0px;writing-mode:lr-tb;text-anchor:start;fill:#000000;fill-opacity:1;stroke:none;font-family:Sans;-inkscape-font-specification:Sans"><tspan
           x="389.55078"
           y="221.2489"
           id="tspan5792"
           style="font-size:8px;font-style:normal;font-variant:normal;font-weight:normal;font-stretch:normal;text-align:start;line-height:125%;writing-mode:lr-tb;text-anchor:start;font-family:Sans;-inkscape-font-specification:Sans">GND</tspan></text>
      <text
         x="415.21484"
         y="221.36218"
         id="text5794"
         xml:space="preserve"
         style="font-size:8px;font-style:normal;font-variant:normal;font-weight:normal;font-stretch:normal;text-align:start;line-height:125%;letter-spacing:0px;word-spacing:0px;writing-mode:lr-tb;text-anchor:start;fill:#000000;fill-opacity:1;stroke:none;font-family:Sans;-inkscape-font-specification:Sans"><tspan
           x="415.21484"
           y="221.36218"
           id="tspan5796"
           style="font-size:8px;font-style:normal;font-variant:normal;font-weight:normal;font-stretch:normal;text-align:start;line-height:125%;writing-mode:lr-tb;text-anchor:start;font-family:Sans;-inkscape-font-specification:Sans">D+</tspan></text>
      <text
         x="433.21484"
         y="221.36218"
         id="text5798"
         xml:space="preserve"
         style="font-size:8px;font-style:normal;font-variant:normal;font-weight:normal;font-stretch:normal;text-align:start;line-height:125%;letter-spacing:0px;word-spacing:0px;writing-mode:lr-tb;text-anchor:start;fill:#000000;fill-opacity:1;stroke:none;font-family:Sans;-inkscape-font-specification:Sans"><tspan
           x="433.21484"
           y="221.36218"
           id="tspan5800"
           style="font-size:8px;font-style:normal;font-variant:normal;font-weight:normal;font-stretch:normal;text-align:start;line-height:125%;writing-mode:lr-tb;text-anchor:start;font-family:Sans;-inkscape-font-specification:Sans">D−</tspan></text>
    </g>
  </g>
</svg>
