<?xml version="1.0" encoding="UTF-8" standalone="no"?>
<!-- Created with Inkscape (http://www.inkscape.org/) -->

<svg
   xmlns:dc="http://purl.org/dc/elements/1.1/"
   xmlns:cc="http://creativecommons.org/ns#"
   xmlns:rdf="http://www.w3.org/1999/02/22-rdf-syntax-ns#"
   xmlns:svg="http://www.w3.org/2000/svg"
   xmlns="http://www.w3.org/2000/svg"
   xmlns:sodipodi="http://sodipodi.sourceforge.net/DTD/sodipodi-0.dtd"
   xmlns:inkscape="http://www.inkscape.org/namespaces/inkscape"
   width="744.09448819"
   height="1052.3622047"
   id="svg2"
   version="1.1"
   inkscape:version="0.48.4 r9939"
   sodipodi:docname="psupply.svg">
  <defs
     id="defs4" />
  <sodipodi:namedview
     id="base"
     pagecolor="#ffffff"
     bordercolor="#666666"
     borderopacity="1.0"
     inkscape:pageopacity="0.0"
     inkscape:pageshadow="2"
     inkscape:zoom="0.98994949"
     inkscape:cx="434.7825"
     inkscape:cy="255.38556"
     inkscape:document-units="mm"
     inkscape:current-layer="layer1"
     showgrid="false"
     inkscape:window-width="1916"
     inkscape:window-height="1012"
     inkscape:window-x="0"
     inkscape:window-y="66"
     inkscape:window-maximized="0" />
  <metadata
     id="metadata7">
    <rdf:RDF>
      <cc:Work
         rdf:about="">
        <dc:format>image/svg+xml</dc:format>
        <dc:type
           rdf:resource="http://purl.org/dc/dcmitype/StillImage" />
        <dc:title></dc:title>
      </cc:Work>
    </rdf:RDF>
  </metadata>
  <g
     inkscape:label="Layer 1"
     inkscape:groupmode="layer"
     id="layer1">
    <g
       id="g3813"
       transform="translate(31.428571,-28.571429)">
      <rect
         y="662.09839"
         x="0.5"
         height="389.76379"
         width="283.46457"
         id="rect2985"
         style="fill:#ffffff;fill-opacity:1;stroke:#000000;stroke-width:1;stroke-miterlimit:4;stroke-opacity:1;stroke-dasharray:none" />
      <path
         transform="matrix(0.59756564,0,0,0.59756563,69.341893,334.03981)"
         d="m 37.628182,1012.3349 c 0,2.9987 -2.430901,5.4296 -5.42957,5.4296 -2.998668,0 -5.42957,-2.4309 -5.42957,-5.4296 0,-2.9987 2.430902,-5.4296 5.42957,-5.4296 2.998669,0 5.42957,2.4309 5.42957,5.4296 z"
         sodipodi:ry="5.4295697"
         sodipodi:rx="5.4295697"
         sodipodi:cy="1012.3349"
         sodipodi:cx="32.198612"
         id="path3757"
         style="fill:#ffffff;fill-opacity:1;stroke:#000000;stroke-width:1;stroke-miterlimit:4;stroke-opacity:1;stroke-dasharray:none"
         sodipodi:type="arc" />
      <path
         transform="matrix(0.59756564,0,0,0.59756563,69.341893,206.48076)"
         d="m 37.628182,1012.3349 c 0,2.9987 -2.430901,5.4296 -5.42957,5.4296 -2.998668,0 -5.42957,-2.4309 -5.42957,-5.4296 0,-2.9987 2.430902,-5.4296 5.42957,-5.4296 2.998669,0 5.42957,2.4309 5.42957,5.4296 z"
         sodipodi:ry="5.4295697"
         sodipodi:rx="5.4295697"
         sodipodi:cy="1012.3349"
         sodipodi:cx="32.198612"
         id="path3757-5"
         style="fill:#ffffff;fill-opacity:1;stroke:#000000;stroke-width:1;stroke-miterlimit:4;stroke-opacity:1;stroke-dasharray:none"
         sodipodi:type="arc" />
      <path
         transform="matrix(0.59756564,0,0,0.59756563,168.55449,206.48076)"
         d="m 37.628182,1012.3349 c 0,2.9987 -2.430901,5.4296 -5.42957,5.4296 -2.998668,0 -5.42957,-2.4309 -5.42957,-5.4296 0,-2.9987 2.430902,-5.4296 5.42957,-5.4296 2.998669,0 5.42957,2.4309 5.42957,5.4296 z"
         sodipodi:ry="5.4295697"
         sodipodi:rx="5.4295697"
         sodipodi:cy="1012.3349"
         sodipodi:cx="32.198612"
         id="path3757-5-3"
         style="fill:#ffffff;fill-opacity:1;stroke:#000000;stroke-width:1;stroke-miterlimit:4;stroke-opacity:1;stroke-dasharray:none"
         sodipodi:type="arc" />
    </g>
    <g
       id="g3880"
       transform="matrix(1,0,0,-1,320.98042,1365.9881)">
      <rect
         y="343.20074"
         x="0.5"
         height="708.66144"
         width="389.76379"
         id="rect3819"
         style="fill:#ffffff;fill-opacity:1;stroke:#000000;stroke-width:1;stroke-miterlimit:4;stroke-opacity:1;stroke-dasharray:none" />
      <path
         sodipodi:type="arc"
         style="fill:#ffffff;fill-opacity:1;stroke:#000000;stroke-width:1;stroke-miterlimit:4;stroke-opacity:1;stroke-dasharray:none"
         id="path3757-2"
         sodipodi:cx="32.198612"
         sodipodi:cy="1012.3349"
         sodipodi:rx="5.4295697"
         sodipodi:ry="5.4295697"
         d="m 37.628182,1012.3349 c 0,2.9987 -2.430901,5.4296 -5.42957,5.4296 -2.998668,0 -5.42957,-2.4309 -5.42957,-5.4296 0,-2.9987 2.430902,-5.4296 5.42957,-5.4296 2.998669,0 5.42957,2.4309 5.42957,5.4296 z"
         transform="matrix(0.59756564,0,0,0.59756563,14.420633,402.13425)" />
      <path
         sodipodi:type="arc"
         style="fill:#ffffff;fill-opacity:1;stroke:#000000;stroke-width:1;stroke-miterlimit:4;stroke-opacity:1;stroke-dasharray:none"
         id="path3757-2-4"
         sodipodi:cx="32.198612"
         sodipodi:cy="1012.3349"
         sodipodi:rx="5.4295697"
         sodipodi:ry="5.4295697"
         d="m 37.628182,1012.3349 c 0,2.9987 -2.430901,5.4296 -5.42957,5.4296 -2.998668,0 -5.42957,-2.4309 -5.42957,-5.4296 0,-2.9987 2.430902,-5.4296 5.42957,-5.4296 2.998669,0 5.42957,2.4309 5.42957,5.4296 z"
         transform="matrix(0.59756564,0,0,0.59756563,315.60174,402.13425)" />
      <path
         sodipodi:type="arc"
         style="fill:#ffffff;fill-opacity:1;stroke:#000000;stroke-width:1;stroke-miterlimit:4;stroke-opacity:1;stroke-dasharray:none"
         id="path3757-2-2"
         sodipodi:cx="32.198612"
         sodipodi:cy="1012.3349"
         sodipodi:rx="5.4295697"
         sodipodi:ry="5.4295697"
         d="m 37.628182,1012.3349 c 0,2.9987 -2.430901,5.4296 -5.42957,5.4296 -2.998668,0 -5.42957,-2.4309 -5.42957,-5.4296 0,-2.9987 2.430902,-5.4296 5.42957,-5.4296 2.998669,0 5.42957,2.4309 5.42957,5.4296 z"
         transform="matrix(0.59756564,0,0,0.59756563,14.420633,-44.322439)" />
      <path
         sodipodi:type="arc"
         style="fill:#ffffff;fill-opacity:1;stroke:#000000;stroke-width:1;stroke-miterlimit:4;stroke-opacity:1;stroke-dasharray:none"
         id="path3757-2-4-6"
         sodipodi:cx="32.198612"
         sodipodi:cy="1012.3349"
         sodipodi:rx="5.4295697"
         sodipodi:ry="5.4295697"
         d="m 37.628182,1012.3349 c 0,2.9987 -2.430901,5.4296 -5.42957,5.4296 -2.998668,0 -5.42957,-2.4309 -5.42957,-5.4296 0,-2.9987 2.430902,-5.4296 5.42957,-5.4296 2.998669,0 5.42957,2.4309 5.42957,5.4296 z"
         transform="matrix(0.59756564,0,0,0.59756563,315.60174,-44.322439)" />
    </g>
  </g>
</svg>
